# xmcd CD database file
# Copyright (C) 1993-1998 Ti Kan
# 
# Track frame offsets:
#     150
#     21927
#     44000
#     74025
#     102782
#     130125
#     156075
#     176810
#     202387
#     222237
# 
# Disc length: 3333 seconds
# 
# Revision: 1
# Processed by: cddbd v1.4b41PL1 Copyright (c) Steve Scherf et al.
# Submitted via: DiscPlay 4.0.4
# 
DISCID=9e0d030a
DTITLE=Garth Weber - Chris Cobb - Dave Goodman - S.F. Blues Guitar Summit - 
DTITLE=Volume 2
DYEAR=1900
DGENRE=
TTITLE0=Overdrawn On Luck
TTITLE1=You Saved Me
TTITLE2=Albert's Blues
TTITLE3=First Come, First Served
TTITLE4=Looks Ain't Everything
TTITLE5=Turning Your Love Away
TTITLE6=Wish You Were Mine
TTITLE7=King Of The Hill
TTITLE8=Worried About You
TTITLE9=Hurtin' Again
EXTD=
EXTT0=
EXTT1=
EXTT2=
EXTT3=
EXTT4=
EXTT5=
EXTT6=
EXTT7=
EXTT8=
EXTT9=
PLAYORDER=
